<svg width="144" height="33" viewBox="0 0 144 33" fill="none" xmlns="http://www.w3.org/2000/svg">
<path d="M14.401 6.01161C12.8906 6.01161 11.926 6.35556 11.5073 7.04346C11.1035 7.73135 10.9017 8.56879 10.9017 9.55577V10.969H15.9039V16.846H10.9017V31.8301H3.81334V16.846H0V10.969H3.81334V8.5015C3.81334 5.55551 4.60591 3.40209 6.19106 2.04126C7.79117 0.680419 10.0194 0 12.8756 0C13.9224 0 14.9318 0.10468 15.9039 0.31404V6.1462C15.6347 6.05648 15.1337 6.01161 14.401 6.01161Z" fill="white"/>
<path d="M38.8422 10.969V31.8301H32.0006V29.7665C31.2978 30.5889 30.3407 31.2395 29.1294 31.718C27.9181 32.1965 26.6096 32.4358 25.2039 32.4358C23.2748 32.4358 21.5626 31.9872 20.0671 31.0899C18.5867 30.1777 17.4277 28.9066 16.5903 27.2766C15.7678 25.6316 15.3565 23.7324 15.3565 21.579C15.3565 19.3359 15.7902 17.3619 16.6576 15.6571C17.5399 13.9374 18.7736 12.6064 20.3587 11.6643C21.9588 10.7073 23.7982 10.2287 25.8769 10.2287C28.763 10.2287 30.9538 11.0736 32.4493 12.7635L32.9203 10.969H38.8422ZM27.133 25.998C28.4789 25.998 29.578 25.5718 30.4304 24.7194C31.2978 23.852 31.7315 22.7155 31.7315 21.3098C31.7315 19.9041 31.2978 18.7751 30.4304 17.9227C29.578 17.0553 28.4789 16.6217 27.133 16.6217C25.7871 16.6217 24.6955 17.0628 23.858 17.9451C23.0355 18.8125 22.6243 19.934 22.6243 21.3098C22.6243 22.6856 23.0355 23.8147 23.858 24.697C24.6955 25.5643 25.7871 25.998 27.133 25.998Z" fill="white"/>
<path d="M40.2015 21.3547C40.2015 19.1564 40.6726 17.2124 41.6147 15.5225C42.5718 13.8327 43.9177 12.5317 45.6524 11.6195C47.3871 10.6923 49.3685 10.2287 51.5967 10.2287C53.6454 10.2287 55.4848 10.6175 57.1148 11.3951C58.7448 12.1578 60.0309 13.242 60.973 14.6477C61.9301 16.0534 62.4535 17.661 62.5432 19.4705H55.2754C55.0661 18.4835 54.6175 17.7507 53.9296 17.2722C53.2417 16.7787 52.4341 16.5319 51.507 16.5319C50.2807 16.5319 49.3012 16.9806 48.5685 17.8778C47.8357 18.7601 47.4693 19.934 47.4693 21.3996C47.4693 22.8352 47.8357 23.9941 48.5685 24.8764C49.3012 25.7438 50.2807 26.1774 51.507 26.1774C52.4939 26.1774 53.3314 25.9083 54.0193 25.3699C54.7072 24.8316 55.1259 24.1362 55.2754 23.2838H62.5432C62.4236 25.0933 61.8778 26.6859 60.9057 28.0617C59.9487 29.4375 58.6626 30.5142 57.0475 31.2918C55.4474 32.0545 53.6305 32.4358 51.5967 32.4358C49.3536 32.4358 47.3646 31.9797 45.6299 31.0675C43.9102 30.1403 42.5718 28.8468 41.6147 27.1868C40.6726 25.512 40.2015 23.5679 40.2015 21.3547Z" fill="white"/>
<path d="M84.7189 24.9886C84.2852 27.2168 83.0964 29.0187 81.1523 30.3945C79.2082 31.7554 76.8754 32.4358 74.1537 32.4358C71.9554 32.4358 70.0114 31.9722 68.3215 31.045C66.6317 30.1029 65.3157 28.787 64.3736 27.0971C63.4464 25.4073 62.9829 23.4782 62.9829 21.3098C62.9829 19.0667 63.4464 17.1152 64.3736 15.4552C65.3157 13.7804 66.6242 12.4943 68.2991 11.597C69.974 10.6848 71.8807 10.2287 74.0191 10.2287C76.1277 10.2287 77.982 10.6624 79.5821 11.5297C81.1972 12.3821 82.4458 13.5785 83.3281 15.1188C84.2254 16.6441 84.674 18.3863 84.674 20.3453C84.674 21.5117 84.5843 22.4912 84.4049 23.2838H70.0263C70.0861 24.3007 70.4899 25.1232 71.2376 25.7512C71.9853 26.3793 72.9574 26.6934 74.1537 26.6934C75.036 26.6934 75.7987 26.5438 76.4417 26.2447C77.0997 25.9307 77.5633 25.512 77.8325 24.9886H84.7189ZM77.3614 18.6854C77.3315 17.8629 76.9801 17.2124 76.3071 16.7338C75.6342 16.2553 74.7818 16.016 73.7499 16.016C72.733 16.016 71.8881 16.2553 71.2152 16.7338C70.5423 17.2124 70.1759 17.8629 70.1161 18.6854H77.3614Z" fill="white"/>
<path d="M97.608 10.7895C98.3108 10.7895 98.9389 10.8493 99.4922 10.969V17.1824L98.6174 17.1376C96.778 17.1376 95.3648 17.6086 94.3779 18.5508C93.4058 19.4779 92.9198 20.7939 92.9198 22.4987V31.8301H85.7866V10.969H92.3142L92.7852 13.6383C93.1292 12.6962 93.7273 11.9858 94.5797 11.5073C95.4321 11.0288 96.4415 10.7895 97.608 10.7895Z" fill="white"/>
<path d="M120.95 24.9886C120.516 27.2168 119.328 29.0187 117.383 30.3945C115.439 31.7554 113.107 32.4358 110.385 32.4358C108.187 32.4358 106.243 31.9722 104.553 31.045C102.863 30.1029 101.547 28.787 100.605 27.0971C99.6776 25.4073 99.2141 23.4782 99.2141 21.3098C99.2141 19.0667 99.6776 17.1152 100.605 15.4552C101.547 13.7804 102.855 12.4943 104.53 11.597C106.205 10.6848 108.112 10.2287 110.25 10.2287C112.359 10.2287 114.213 10.6624 115.813 11.5297C117.428 12.3821 118.677 13.5785 119.559 15.1188C120.457 16.6441 120.905 18.3863 120.905 20.3453C120.905 21.5117 120.815 22.4912 120.636 23.2838H106.258C106.317 24.3007 106.721 25.1232 107.469 25.7512C108.217 26.3793 109.189 26.6934 110.385 26.6934C111.267 26.6934 112.03 26.5438 112.673 26.2447C113.331 25.9307 113.794 25.512 114.064 24.9886H120.95ZM113.593 18.6854C113.563 17.8629 113.211 17.2124 112.538 16.7338C111.865 16.2553 111.013 16.016 109.981 16.016C108.964 16.016 108.119 16.2553 107.446 16.7338C106.773 17.2124 106.407 17.8629 106.347 18.6854H113.593Z" fill="white"/>
<path d="M121.098 21.3547C121.098 19.1564 121.569 17.2124 122.511 15.5225C123.468 13.8327 124.814 12.5317 126.549 11.6195C128.284 10.6923 130.265 10.2287 132.493 10.2287C134.542 10.2287 136.381 10.6175 138.011 11.3951C139.641 12.1578 140.927 13.242 141.87 14.6477C142.827 16.0534 143.35 17.661 143.44 19.4705H136.172C135.963 18.4835 135.514 17.7507 134.826 17.2722C134.138 16.7787 133.331 16.5319 132.404 16.5319C131.177 16.5319 130.198 16.9806 129.465 17.8778C128.732 18.7601 128.366 19.934 128.366 21.3996C128.366 22.8352 128.732 23.9941 129.465 24.8764C130.198 25.7438 131.177 26.1774 132.404 26.1774C133.391 26.1774 134.228 25.9083 134.916 25.3699C135.604 24.8316 136.022 24.1362 136.172 23.2838H143.44C143.32 25.0933 142.774 26.6859 141.802 28.0617C140.845 29.4375 139.559 30.5142 137.944 31.2918C136.344 32.0545 134.527 32.4358 132.493 32.4358C130.25 32.4358 128.261 31.9797 126.527 31.0675C124.807 30.1403 123.468 28.8468 122.511 27.1868C121.569 25.512 121.098 23.5679 121.098 21.3547Z" fill="white"/>
</svg>
