<svg width="202" height="42" viewBox="0 0 202 42" fill="none" xmlns="http://www.w3.org/2000/svg">
<path d="M72.401 12.0116C70.8906 12.0116 69.926 12.3556 69.5073 13.0435C69.1035 13.7314 68.9017 14.5688 68.9017 15.5558V16.969H73.9039V22.846H68.9017V37.8301H61.8133V22.846H58V16.969H61.8133V14.5015C61.8133 11.5555 62.6059 9.40209 64.1911 8.04126C65.7912 6.68042 68.0194 6 70.8756 6C71.9224 6 72.9318 6.10468 73.9039 6.31404V12.1462C73.6347 12.0565 73.1337 12.0116 72.401 12.0116Z" fill="#FF6246"/>
<path d="M96.8422 16.969V37.8301H90.0006V35.7665C89.2978 36.5889 88.3407 37.2395 87.1294 37.718C85.9181 38.1965 84.6096 38.4358 83.2039 38.4358C81.2748 38.4358 79.5626 37.9872 78.0671 37.0899C76.5867 36.1777 75.4277 34.9066 74.5903 33.2766C73.7678 31.6316 73.3565 29.7324 73.3565 27.579C73.3565 25.3359 73.7902 23.3619 74.6576 21.6571C75.5399 19.9374 76.7736 18.6064 78.3587 17.6643C79.9588 16.7073 81.7982 16.2287 83.8769 16.2287C86.763 16.2287 88.9538 17.0736 90.4493 18.7635L90.9203 16.969H96.8422ZM85.133 31.998C86.4789 31.998 87.578 31.5718 88.4304 30.7194C89.2978 29.852 89.7315 28.7155 89.7315 27.3098C89.7315 25.9041 89.2978 24.7751 88.4304 23.9227C87.578 23.0553 86.4789 22.6217 85.133 22.6217C83.7871 22.6217 82.6955 23.0628 81.858 23.9451C81.0355 24.8125 80.6243 25.934 80.6243 27.3098C80.6243 28.6856 81.0355 29.8147 81.858 30.697C82.6955 31.5643 83.7871 31.998 85.133 31.998Z" fill="#FF6246"/>
<path d="M98.2015 27.3547C98.2015 25.1564 98.6726 23.2124 99.6147 21.5225C100.572 19.8327 101.918 18.5317 103.652 17.6195C105.387 16.6923 107.369 16.2287 109.597 16.2287C111.645 16.2287 113.485 16.6175 115.115 17.3951C116.745 18.1578 118.031 19.242 118.973 20.6477C119.93 22.0534 120.453 23.661 120.543 25.4705H113.275C113.066 24.4835 112.617 23.7507 111.93 23.2722C111.242 22.7787 110.434 22.5319 109.507 22.5319C108.281 22.5319 107.301 22.9806 106.568 23.8778C105.836 24.7601 105.469 25.934 105.469 27.3996C105.469 28.8352 105.836 29.9941 106.568 30.8764C107.301 31.7438 108.281 32.1774 109.507 32.1774C110.494 32.1774 111.331 31.9083 112.019 31.3699C112.707 30.8316 113.126 30.1362 113.275 29.2838H120.543C120.424 31.0933 119.878 32.6859 118.906 34.0617C117.949 35.4375 116.663 36.5142 115.048 37.2918C113.447 38.0545 111.63 38.4358 109.597 38.4358C107.354 38.4358 105.365 37.9797 103.63 37.0675C101.91 36.1403 100.572 34.8468 99.6147 33.1868C98.6726 31.512 98.2015 29.5679 98.2015 27.3547Z" fill="#FF6246"/>
<path d="M142.719 30.9886C142.285 33.2168 141.096 35.0187 139.152 36.3945C137.208 37.7554 134.875 38.4358 132.154 38.4358C129.955 38.4358 128.011 37.9722 126.322 37.045C124.632 36.1029 123.316 34.787 122.374 33.0971C121.446 31.4073 120.983 29.4782 120.983 27.3098C120.983 25.0667 121.446 23.1152 122.374 21.4552C123.316 19.7804 124.624 18.4943 126.299 17.597C127.974 16.6848 129.881 16.2287 132.019 16.2287C134.128 16.2287 135.982 16.6624 137.582 17.5297C139.197 18.3821 140.446 19.5785 141.328 21.1188C142.225 22.6441 142.674 24.3863 142.674 26.3453C142.674 27.5117 142.584 28.4912 142.405 29.2838H128.026C128.086 30.3007 128.49 31.1232 129.238 31.7512C129.985 32.3793 130.957 32.6934 132.154 32.6934C133.036 32.6934 133.799 32.5438 134.442 32.2447C135.1 31.9307 135.563 31.512 135.832 30.9886H142.719ZM135.361 24.6854C135.331 23.8629 134.98 23.2124 134.307 22.7338C133.634 22.2553 132.782 22.016 131.75 22.016C130.733 22.016 129.888 22.2553 129.215 22.7338C128.542 23.2124 128.176 23.8629 128.116 24.6854H135.361Z" fill="#FF6246"/>
<path d="M155.608 16.7895C156.311 16.7895 156.939 16.8493 157.492 16.969V23.1824L156.617 23.1376C154.778 23.1376 153.365 23.6086 152.378 24.5508C151.406 25.4779 150.92 26.7939 150.92 28.4987V37.8301H143.787V16.969H150.314L150.785 19.6383C151.129 18.6962 151.727 17.9858 152.58 17.5073C153.432 17.0288 154.442 16.7895 155.608 16.7895Z" fill="#FF6246"/>
<path d="M178.95 30.9886C178.516 33.2168 177.328 35.0187 175.383 36.3945C173.439 37.7554 171.107 38.4358 168.385 38.4358C166.187 38.4358 164.243 37.9722 162.553 37.045C160.863 36.1029 159.547 34.787 158.605 33.0971C157.678 31.4073 157.214 29.4782 157.214 27.3098C157.214 25.0667 157.678 23.1152 158.605 21.4552C159.547 19.7804 160.855 18.4943 162.53 17.597C164.205 16.6848 166.112 16.2287 168.25 16.2287C170.359 16.2287 172.213 16.6624 173.813 17.5297C175.428 18.3821 176.677 19.5785 177.559 21.1188C178.457 22.6441 178.905 24.3863 178.905 26.3453C178.905 27.5117 178.815 28.4912 178.636 29.2838H164.258C164.317 30.3007 164.721 31.1232 165.469 31.7512C166.217 32.3793 167.189 32.6934 168.385 32.6934C169.267 32.6934 170.03 32.5438 170.673 32.2447C171.331 31.9307 171.794 31.512 172.064 30.9886H178.95ZM171.593 24.6854C171.563 23.8629 171.211 23.2124 170.538 22.7338C169.865 22.2553 169.013 22.016 167.981 22.016C166.964 22.016 166.119 22.2553 165.446 22.7338C164.773 23.2124 164.407 23.8629 164.347 24.6854H171.593Z" fill="#FF6246"/>
<path d="M179.098 27.3547C179.098 25.1564 179.569 23.2124 180.511 21.5225C181.468 19.8327 182.814 18.5317 184.549 17.6195C186.284 16.6923 188.265 16.2287 190.493 16.2287C192.542 16.2287 194.381 16.6175 196.011 17.3951C197.641 18.1578 198.927 19.242 199.87 20.6477C200.827 22.0534 201.35 23.661 201.44 25.4705H194.172C193.963 24.4835 193.514 23.7507 192.826 23.2722C192.138 22.7787 191.331 22.5319 190.404 22.5319C189.177 22.5319 188.198 22.9806 187.465 23.8778C186.732 24.7601 186.366 25.934 186.366 27.3996C186.366 28.8352 186.732 29.9941 187.465 30.8764C188.198 31.7438 189.177 32.1774 190.404 32.1774C191.391 32.1774 192.228 31.9083 192.916 31.3699C193.604 30.8316 194.022 30.1362 194.172 29.2838H201.44C201.32 31.0933 200.774 32.6859 199.802 34.0617C198.845 35.4375 197.559 36.5142 195.944 37.2918C194.344 38.0545 192.527 38.4358 190.493 38.4358C188.25 38.4358 186.261 37.9797 184.527 37.0675C182.807 36.1403 181.468 34.8468 180.511 33.1868C179.569 31.512 179.098 29.5679 179.098 27.3547Z" fill="#FF6246"/>
<path fill-rule="evenodd" clip-rule="evenodd" d="M41.3333 17.3333C41.3333 23.8326 37.7563 29.4965 32.4635 32.4635C33.8666 29.9604 34.6667 27.0736 34.6667 24C34.6667 16.7895 30.2639 10.6072 24 7.99509C26.0522 7.13926 28.3042 6.66666 30.6666 6.66666C33.7403 6.66666 36.6271 7.46668 39.1301 8.86984C40.5333 11.3729 41.3333 14.2597 41.3333 17.3333ZM8.86984 8.86984C3.57705 11.8369 0 17.5007 0 24C0 33.5729 7.7604 41.3333 17.3333 41.3333C19.6957 41.3333 21.9477 40.8607 24 40.0049C26.0522 40.8607 28.3042 41.3333 30.6666 41.3333C40.2396 41.3333 48 33.5729 48 24C48 17.5007 44.4229 11.8369 39.1301 8.86984C36.1631 3.57706 30.4993 0 24 0C17.5007 0 11.8369 3.57706 8.86984 8.86984ZM15.5365 32.4635C18.0396 33.8666 20.9263 34.6667 24 34.6667C27.0736 34.6667 29.9604 33.8666 32.4635 32.4635C30.5749 35.8324 27.5938 38.5062 24 40.0049C20.4062 38.5062 17.4251 35.8324 15.5365 32.4635ZM15.5365 32.4635C10.2437 29.4965 6.66666 23.8326 6.66666 17.3333C6.66666 14.2597 7.46667 11.3729 8.86984 8.86984C11.3729 7.46668 14.2597 6.66666 17.3333 6.66666C19.6957 6.66666 21.9477 7.13926 24 7.99509C17.7361 10.6072 13.3333 16.7895 13.3333 24C13.3333 27.0736 14.1333 29.9604 15.5365 32.4635Z" fill="#FF6246"/>
</svg>
