<svg width="48" height="42" viewBox="0 0 48 42" fill="none" xmlns="http://www.w3.org/2000/svg">
<path fill-rule="evenodd" clip-rule="evenodd" d="M41.3333 17.3333C41.3333 23.8326 37.7563 29.4965 32.4635 32.4635C33.8666 29.9604 34.6667 27.0736 34.6667 24C34.6667 16.7895 30.2639 10.6072 24 7.99509C26.0522 7.13926 28.3042 6.66666 30.6666 6.66666C33.7403 6.66666 36.6271 7.46668 39.1301 8.86984C40.5333 11.3729 41.3333 14.2597 41.3333 17.3333ZM8.86984 8.86984C3.57705 11.8369 0 17.5007 0 24C0 33.5729 7.7604 41.3333 17.3333 41.3333C19.6957 41.3333 21.9477 40.8607 24 40.0049C26.0522 40.8607 28.3042 41.3333 30.6666 41.3333C40.2396 41.3333 48 33.5729 48 24C48 17.5007 44.4229 11.8369 39.1301 8.86984C36.1631 3.57706 30.4993 0 24 0C17.5007 0 11.8369 3.57706 8.86984 8.86984ZM15.5365 32.4635C18.0396 33.8666 20.9263 34.6667 24 34.6667C27.0736 34.6667 29.9604 33.8666 32.4635 32.4635C30.5749 35.8324 27.5938 38.5062 24 40.0049C20.4062 38.5062 17.4251 35.8324 15.5365 32.4635ZM15.5365 32.4635C10.2437 29.4965 6.66666 23.8326 6.66666 17.3333C6.66666 14.2597 7.46667 11.3729 8.86984 8.86984C11.3729 7.46668 14.2597 6.66666 17.3333 6.66666C19.6957 6.66666 21.9477 7.13926 24 7.99509C17.7361 10.6072 13.3333 16.7895 13.3333 24C13.3333 27.0736 14.1333 29.9604 15.5365 32.4635Z" fill="white"/>
</svg>
