<svg width="61" height="31" viewBox="0 0 61 31" fill="none" xmlns="http://www.w3.org/2000/svg">
<path d="M53.9665 5.59838C56.1311 6.9218 57.8704 8.43124 59.0779 10.0726L57.4669 11.2578C58.5038 12.6672 59 14.0899 59 15.5C59 16.9101 58.5038 18.3328 57.4669 19.7422L59.0779 20.9274C57.8704 22.5688 56.1311 24.0782 53.9665 25.4016L52.9233 23.6953C50.2114 25.3533 46.7088 26.7347 42.6431 27.6726L43.0926 29.6214C40.9644 30.1123 38.7056 30.4826 36.35 30.7152L36.1535 28.7249C34.3261 28.9053 32.4358 29 30.5 29C28.5642 29 26.6739 28.9053 24.8465 28.7249L24.65 30.7152C22.2944 30.4826 20.0356 30.1123 17.9074 29.6214L18.3569 27.6726C14.2912 26.7347 10.7886 25.3533 8.07672 23.6953L7.03345 25.4016C4.86889 24.0782 3.12959 22.5688 1.9221 20.9274L3.5331 19.7422C2.49618 18.3328 2 16.9101 2 15.5C2 14.0899 2.49618 12.6672 3.5331 11.2578L1.92209 10.0726C3.12959 8.43124 4.86889 6.9218 7.03345 5.59838L8.07672 7.30473C10.7886 5.64666 14.2912 4.26527 18.3569 3.32743L17.9074 1.3786C20.0356 0.887689 22.2944 0.517373 24.65 0.284824L24.8465 2.27515C26.6739 2.09474 28.5642 2 30.5 2C32.4358 2 34.3261 2.09474 36.1535 2.27515L36.35 0.284824C38.7056 0.517373 40.9644 0.887689 43.0926 1.3786L42.6431 3.32743C46.7088 4.26527 50.2114 5.64666 52.9233 7.30473L53.9665 5.59838Z" stroke="white" stroke-width="4" stroke-linejoin="round" stroke-dasharray="12 7"/>
</svg>
