<svg width="271" height="347" viewBox="0 0 271 347" fill="none" xmlns="http://www.w3.org/2000/svg">
<path d="M268.06 137.38C269.335 145.091 270.21 152.99 270.656 161.042L268.659 161.152C268.885 165.23 269 169.348 269 173.5C269 177.652 268.885 181.77 268.659 185.848L270.656 185.958C270.21 194.01 269.335 201.909 268.06 209.62L266.086 209.293C264.722 217.544 262.896 225.574 260.644 233.337L262.565 233.894C260.316 241.648 257.647 249.139 254.593 256.324L252.753 255.542C249.478 263.245 245.758 270.587 241.638 277.513L243.357 278.536C239.222 285.487 234.686 292.027 229.793 298.099L228.236 296.844C222.994 303.349 217.342 309.305 211.336 314.642L212.665 316.137C206.635 321.495 200.249 326.242 193.562 330.309L192.523 328.6C185.473 332.888 178.09 336.402 170.44 339.062L171.096 340.951C163.612 343.553 155.87 345.355 147.93 346.28L147.699 344.293C143.682 344.761 139.613 345 135.5 345C131.387 345 127.318 344.761 123.301 344.293L123.07 346.28C115.13 345.355 107.388 343.553 99.9036 340.951L100.56 339.062C92.91 336.402 85.5268 332.888 78.4772 328.6L77.438 330.309C70.7507 326.242 64.3649 321.495 58.3352 316.137L59.6637 314.642C53.6584 309.305 48.0062 303.349 42.764 296.844L41.2067 298.099C36.3143 292.027 31.7784 285.487 27.643 278.536L29.3618 277.513C25.2416 270.587 21.5216 263.245 18.2473 255.542L16.4067 256.324C13.3526 249.139 10.6835 241.648 8.43492 233.894L10.3558 233.337C8.10435 225.574 6.27804 217.544 4.91362 209.293L2.94042 209.62C1.66529 201.909 0.790093 194.01 0.34395 185.958L2.34089 185.848C2.11492 181.77 2 177.652 2 173.5C2 169.348 2.11492 165.23 2.34089 161.152L0.34395 161.042C0.790092 152.99 1.66529 145.091 2.94042 137.38L4.91362 137.707C6.27804 129.456 8.10435 121.426 10.3558 113.663L8.43492 113.106C10.6835 105.352 13.3526 97.8606 16.4067 90.6758L18.2473 91.4583C21.5216 83.7553 25.2416 76.4126 29.3618 69.4866L27.643 68.4641C31.7783 61.5126 36.3143 54.9728 41.2067 48.9013L42.764 50.1562C48.0062 43.6507 53.6584 37.695 59.6637 32.3584L58.3351 30.8634C64.3649 25.5051 70.7507 20.7576 77.438 16.6907L78.4772 18.3995C85.5268 14.1123 92.91 10.598 100.56 7.93796L99.9036 6.04889C107.388 3.44651 115.13 1.64487 123.07 0.720263L123.301 2.70684C127.318 2.23905 131.387 2 135.5 2C139.613 2 143.682 2.23905 147.699 2.70684L147.93 0.720261C155.87 1.64487 163.612 3.4465 171.096 6.04889L170.44 7.93796C178.09 10.598 185.473 14.1123 192.523 18.3995L193.562 16.6907C200.249 20.7576 206.635 25.5051 212.665 30.8634L211.336 32.3584C217.342 37.6949 222.994 43.6507 228.236 50.1562L229.793 48.9013C234.686 54.9728 239.222 61.5126 243.357 68.4641L241.638 69.4866C245.758 76.4125 249.478 83.7553 252.753 91.4582L254.593 90.6758C257.647 97.8606 260.316 105.352 262.565 113.106L260.644 113.663C262.896 121.426 264.722 129.456 266.086 137.707L268.06 137.38Z" stroke="white" stroke-width="4" stroke-linejoin="round" stroke-dasharray="23 22"/>
</svg>
